<?xml version="1.0" standalone="no"?>
<!DOCTYPE svg PUBLIC "-//W3C//DTD SVG 20010904//EN"
 "http://www.w3.org/TR/2001/REC-SVG-20010904/DTD/svg10.dtd">
<svg version="1.0" xmlns="http://www.w3.org/2000/svg"
 width="700.000000pt" height="700.000000pt" viewBox="0 0 700.000000 700.000000"
 preserveAspectRatio="xMidYMid meet">
<metadata>
Created by potrace 1.11, written by Peter Selinger 2001-2013
</metadata>
<g transform="translate(0.000000,700.000000) scale(0.100000,-0.100000)"
fill="#000000" stroke="none">
<path d="M1985 6982 c-61 -38 -69 -62 -70 -220 -1 -78 -4 -144 -6 -145 -2 -2
-42 -25 -89 -51 -124 -70 -139 -79 -205 -121 -66 -42 -247 -171 -286 -204 -13
-11 -58 -48 -99 -83 -77 -65 -271 -255 -349 -343 -182 -204 -374 -490 -504
-752 -105 -209 -156 -343 -252 -663 -18 -62 -73 -332 -81 -400 -3 -30 -7 -68
-10 -85 -20 -159 -26 -534 -11 -705 54 -627 277 -1231 641 -1735 107 -148 216
-276 361 -421 202 -202 304 -288 505 -426 254 -174 591 -343 855 -428 22 -7
60 -30 85 -51 126 -104 308 -148 475 -114 41 9 91 13 112 11 21 -3 74 -8 118
-11 44 -4 91 -8 105 -11 34 -5 371 -5 440 1 208 18 242 22 350 41 95 16 107
18 200 37 l65 14 45 -32 c87 -61 165 -83 281 -81 61 2 86 8 141 35 113 54 201
161 244 293 18 52 23 58 74 84 72 36 236 134 329 197 74 50 282 205 291 217 3
4 28 26 55 50 121 102 323 312 424 440 28 36 58 73 66 83 8 9 15 19 15 22 0 3
6 13 14 22 110 136 284 436 389 673 77 175 175 476 203 629 3 14 7 27 9 31 2
4 7 29 10 56 4 27 10 65 15 84 5 19 12 64 15 100 4 36 9 74 11 85 25 115 25
629 0 805 -1 14 -6 50 -10 80 -4 30 -11 78 -16 105 -5 28 -12 66 -15 85 -16
96 -74 313 -120 450 -242 717 -735 1360 -1362 1775 -54 36 -103 68 -109 73
-44 31 -199 115 -334 179 l-140 68 -1 55 c-2 144 -5 200 -12 206 -10 11 -93
-50 -160 -118 l-59 -59 -56 20 c-182 62 -373 104 -677 146 -119 17 -331 22
-660 17 -49 -1 -113 -1 -141 1 -36 1 -58 -3 -70 -14 -16 -13 -84 -29 -248 -56
-16 -3 -40 -9 -53 -14 -21 -8 -25 -5 -39 24 -20 42 -48 59 -103 64 -76 6 -141
-56 -141 -134 0 -26 -5 -31 -42 -43 -24 -8 -81 -29 -128 -47 -47 -18 -87 -33
-90 -33 -3 0 -5 29 -4 65 1 94 -5 119 -34 154 -35 41 -110 52 -157 23z"/>
</g>
</svg>
