<svg version="1.1" id="Capa_1" xmlns="http://www.w3.org/2000/svg" xmlns:xlink="http://www.w3.org/1999/xlink" x="0px" y="0px"
	 viewBox="0 0 55.277 55.277" style="enable-background:new 0 0 55.277 55.277;" xml:space="preserve">
<g>
	<path style="fill:#F75B57;" d="M8.654,20.016C5.117,16.479,4.708,11.163,7.74,8.131l0.914-0.914
		c3.032-3.032,8.348-2.623,11.885,0.914c3.282,3.282,3.282,8.603,0,11.885S11.936,23.298,8.654,20.016z"/>
	<path style="fill:#F98282;" d="M12.995,11.183c-1.084,0-2.167-0.412-2.993-1.237c-0.391-0.391-0.391-1.023,0-1.414
		c0.39-0.391,1.023-0.391,1.414,0c0.87,0.869,2.287,0.869,3.157,0c0.391-0.391,1.024-0.391,1.415,0c0.39,0.391,0.39,1.024,0,1.414
		C15.162,10.771,14.078,11.183,12.995,11.183z"/>
	<path style="fill:#A46F3E;" d="M6.85,33.982l4.5,11.085c2.97,5.46,5.36,6.893,11.163,9.118c3.793,1.455,10.978,1.455,14.742,0
		c5.742-2.219,8.171-3.616,11.112-9.023l4.551-11.18c-2.546-2.521-6.667,0.291-9.214,2.812c-2.533-2.521-6.634-0.726-9.167,1.795
		c-2.533-2.521-6.634-2.521-9.167,0c-2.559-2.521-6.701-4.316-9.26-1.795C13.551,34.273,9.409,31.462,6.85,33.982z"/>
	<path style="fill:#C18B5F;" d="M19.749,49.09c-0.376,0-0.736-0.213-0.906-0.576l-2.764-5.904c-0.234-0.5-0.019-1.096,0.482-1.329
		c0.501-0.233,1.096-0.02,1.33,0.481l2.764,5.904c0.234,0.5,0.019,1.096-0.482,1.329C20.035,49.06,19.891,49.09,19.749,49.09z"/>
	<path style="fill:#C18B5F;" d="M40.018,49.09c-0.142,0-0.287-0.03-0.423-0.095c-0.5-0.233-0.716-0.829-0.482-1.329l2.764-5.904
		c0.233-0.501,0.831-0.719,1.33-0.481c0.5,0.233,0.716,0.829,0.482,1.329l-2.764,5.904C40.754,48.877,40.394,49.09,40.018,49.09z"/>
	<path style="fill:#C18B5F;" d="M33.57,51.186c-0.051,0-0.104-0.004-0.156-0.012c-0.545-0.085-0.919-0.597-0.834-1.143l0.921-5.904
		c0.085-0.546,0.596-0.916,1.143-0.834c0.545,0.085,0.919,0.597,0.834,1.143l-0.921,5.904C34.48,50.833,34.054,51.186,33.57,51.186z
		"/>
	<path style="fill:#C18B5F;" d="M26.197,51.186c-0.484,0-0.91-0.353-0.987-0.846l-0.921-5.904c-0.085-0.546,0.289-1.058,0.834-1.143
		c0.546-0.082,1.057,0.288,1.143,0.834l0.921,5.904c0.085,0.546-0.289,1.058-0.834,1.143C26.3,51.182,26.248,51.186,26.197,51.186z"
		/>
	<path style="fill:#FFF5BB;" d="M49.822,25.258c0.146-0.497,0.224-1.006,0.224-1.524c0-2.784-2.196-5.308-5.757-7.161
		c0,0,0.094-16.011-12.962-14.717c0,0,4.21,6.817-1.689,6.879c-2.875,0.03-5.551,0.412-7.827,1.048
		c1.922,3.226,1.504,7.458-1.273,10.235c-2.88,2.88-7.331,3.231-10.596,1.055c-0.452,0.85-0.713,1.74-0.713,2.662
		c0,0.518,0.078,1.027,0.224,1.524c-2.368,1.752-3.746,3.831-3.746,6.063c0,1.527,0.646,2.983,1.81,4.311L6.85,33.982
		c2.559-2.521,6.701,0.291,9.26,2.812c2.559-2.521,6.701-0.726,9.26,1.795c2.533-2.521,6.634-2.521,9.167,0
		c2.533-2.521,6.634-4.316,9.167-1.795c2.541-2.515,6.649-5.318,9.196-2.826c0.433-0.85,0.668-1.735,0.668-2.648
		C53.568,29.088,52.19,27.01,49.822,25.258z"/>
	<path style="fill:#6A3311;" d="M12.708,8.186c-0.513,0-0.949-0.393-0.995-0.912c-0.005-0.053-0.258-2.415-2.202-3.932
		C7.956,2.129,5.718,1.739,2.86,2.174c-0.54,0.085-1.056-0.29-1.14-0.837c-0.084-0.546,0.291-1.056,0.837-1.14
		c3.44-0.529,6.204,0.007,8.211,1.59c2.636,2.077,2.925,5.184,2.937,5.314c0.046,0.551-0.362,1.034-0.913,1.08
		C12.764,8.185,12.736,8.186,12.708,8.186z"/>
	<path style="fill:#F9DA49;" d="M29.886,20.146c-0.552,0-1-0.447-1-1s0.448-1,1-1c4.132,0,8.052-0.523,11.335-1.515
		c0.527-0.159,1.087,0.14,1.247,0.668c0.159,0.529-0.14,1.087-0.668,1.246C38.331,19.592,34.211,20.146,29.886,20.146z"/>
	<path style="fill:#F9DA49;" d="M15.053,29.104c-0.114,0-0.229-0.02-0.342-0.061c-1.111-0.404-2.181-0.875-3.181-1.398
		c-0.489-0.256-0.679-0.859-0.423-1.35c0.256-0.489,0.86-0.68,1.35-0.422c0.922,0.481,1.911,0.916,2.939,1.291
		c0.519,0.189,0.786,0.763,0.597,1.282C15.845,28.852,15.461,29.104,15.053,29.104z"/>
	<path style="fill:#F9DA49;" d="M29.636,31.451c-2.042,0-4.073-0.123-6.08-0.37c-0.548-0.067-0.938-0.565-0.871-1.114
		c0.068-0.548,0.575-0.938,1.115-0.87c4.012,0.493,8.124,0.472,12.222-0.061c0.55-0.08,1.049,0.314,1.121,0.862
		s-0.315,1.05-0.863,1.12C34.063,31.307,31.843,31.451,29.636,31.451z"/>
	<path style="fill:#F9DA49;" d="M41.71,29.931c-0.44,0-0.843-0.292-0.964-0.737c-0.145-0.532,0.169-1.082,0.702-1.228
		c2.07-0.564,3.914-1.271,5.48-2.098c0.488-0.256,1.094-0.07,1.351,0.418c0.258,0.488,0.071,1.093-0.417,1.352
		c-1.695,0.895-3.676,1.654-5.887,2.258C41.886,29.92,41.797,29.931,41.71,29.931z"/>
</g>
<g>
</g>
<g>
</g>
<g>
</g>
<g>
</g>
<g>
</g>
<g>
</g>
<g>
</g>
<g>
</g>
<g>
</g>
<g>
</g>
<g>
</g>
<g>
</g>
<g>
</g>
<g>
</g>
<g>
</g>
</svg>
