<?xml version="1.0" encoding="iso-8859-1"?>
<!-- Generator: Adobe Illustrator 19.0.0, SVG Export Plug-In . SVG Version: 6.00 Build 0)  -->
<svg version="1.1" id="Capa_1" xmlns="http://www.w3.org/2000/svg" xmlns:xlink="http://www.w3.org/1999/xlink" x="0px" y="0px"
	 viewBox="0 0 513.421 513.421" style="enable-background:new 0 0 513.421 513.421;" xml:space="preserve">
<circle style="fill:#CDD6E0;" cx="256.71" cy="256.137" r="256"/>
<circle style="fill:#ACB3BA;" cx="256.71" cy="256.137" r="184.533"/>
<path style="fill:#F2F2F2;" d="M264.177,0.137c-5.333,0-8.533,5.333-8.533,9.6v97.067c0,5.333-4.267,9.6-9.6,9.6
	c-5.333,0-9.6-4.267-9.6-9.6V9.737c0-5.333-3.2-9.6-8.533-9.6c-5.333-1.067-10.667,4.267-10.667,9.6v97.067
	c0,5.333-4.267,9.6-9.6,9.6l0,0c-5.333,0-9.6-4.267-9.6-9.6V9.737c0-5.333-3.2-9.6-8.533-9.6c-5.333-1.067-10.667,4.267-10.667,9.6
	v97.067c0,5.333-4.267,9.6-9.6,9.6l0,0c-5.333,0-9.6-4.267-9.6-9.6V9.737c0-5.333-3.2-9.6-8.533-9.6
	c-5.333-1.067-10.667,4.267-10.667,9.6v107.733c0,18.133,7.467,34.133,19.2,46.933c19.2,19.2,29.867,45.867,27.733,72.533
	l-21.333,230.4c0,2.133,0,5.333,0,7.467c2.133,23.467,24.533,40.533,48,36.267c21.333-4.267,35.2-24.533,33.067-45.867
	l-20.267-229.333c-2.133-27.733,8.533-53.333,27.733-72.533c11.733-11.733,19.2-28.8,19.2-46.933V9.737
	C273.777,4.404,269.51,0.137,264.177,0.137z"/>
<path style="fill:#40596B;" d="M227.91,240.137h-40.533l-20.267,227.2c0,2.133,0,5.333,0,7.467
	c2.133,23.467,24.533,40.533,48,36.267c21.333-4.267,35.2-24.533,33.067-45.867L227.91,240.137z"/>
<path style="fill:#F2F2F2;" d="M355.91,0.137c0,0-45.867,18.133-65.067,155.733c-7.467,56.533,4.267,112,25.6,164.267
	c2.133,5.333,3.2,11.733,3.2,18.133l-12.8,137.6c0,2.133,0,4.267,0,6.4c2.133,18.133,18.133,32,37.333,29.867
	c17.067-2.133,28.8-20.267,27.733-37.333L355.91,0.137z"/>
<path style="fill:#FF7058;" d="M319.644,337.204c0,1.067,0,1.067,0,2.133l-12.8,137.6c0,2.133,0,4.267,0,6.4
	c2.133,18.133,18.133,32,37.333,29.867c17.067-2.133,28.8-20.267,27.733-37.333l-4.267-137.6h-48V337.204z"/>
<g>
</g>
<g>
</g>
<g>
</g>
<g>
</g>
<g>
</g>
<g>
</g>
<g>
</g>
<g>
</g>
<g>
</g>
<g>
</g>
<g>
</g>
<g>
</g>
<g>
</g>
<g>
</g>
<g>
</g>
</svg>
